<svg xmlns="http://www.w3.org/2000/svg" xmlns:xlink="http://www.w3.org/1999/xlink" xmlns:fi="http://pattern.flaticon.com/" x="0" y="0" width="700" height="350" viewBox="0 0 700 350"><rect x="0px" y="0px" width="100%" height="100%" opacity="1" fill="#181818"/><defs><g transform="matrix(0.0547374738458251 0.009122912334228779 -0.009122912334228779 0.0547374738458251 76.41046114695212 334.6868574073989)" id="L1_286"><path d="m328 0h-288c-22.082031.0273438-39.9726562 17.917969-40 40v400c.0273438 22.082031 17.917969 39.972656 40 40h288c22.082031-.027344 39.972656-17.917969 40-40v-400c-.027344-22.082031-17.917969-39.9726562-40-40zm-24 16v52.6875l-10.34375-10.34375c-3.125-3.121094-8.1875-3.121094-11.3125 0l-10.34375 10.34375v-52.6875zm48 424c0 13.253906-10.746094 24-24 24h-288c-13.253906 0-24-10.746094-24-24v-400c0-13.253906 10.746094-24 24-24h216v72c0 3.234375 1.949219 6.152344 4.9375 7.390625s6.429688.550781 8.71875-1.734375l18.34375-18.34375 18.34375 18.34375c2.289062 2.285156 5.730469 2.972656 8.71875 1.734375s4.9375-4.15625 4.9375-7.390625v-72h8c13.253906 0 24 10.746094 24 24zm0 0" fill="#ffffff"/><path d="m74.34375 117.65625 11.3125-11.3125-18.34375-18.34375 18.34375-18.34375-11.3125-11.3125-24 24c-3.121094 3.125-3.121094 8.1875 0 11.3125zm0 0" fill="#ffffff"/><path d="m181.65625 117.65625 24-24c3.121094-3.125 3.121094-8.1875 0-11.3125l-24-24-11.3125 11.3125 18.34375 18.34375-18.34375 18.34375zm0 0" fill="#ffffff"/><path d="m104.570312 125.027344 32.007813-79.992188 14.863281 5.945313-32.007812 79.996093zm0 0" fill="#ffffff"/><path d="m48 160h32v16h-32zm0 0" fill="#ffffff"/><path d="m96 160h80v16h-80zm0 0" fill="#ffffff"/><path d="m192 160h16v16h-16zm0 0" fill="#ffffff"/><path d="m80 208h32v16h-32zm0 0" fill="#ffffff"/><path d="m128 208h48v16h-48zm0 0" fill="#ffffff"/><path d="m192 208h64v16h-64zm0 0" fill="#ffffff"/><path d="m96 256h48v16h-48zm0 0" fill="#ffffff"/><path d="m160 256h16v16h-16zm0 0" fill="#ffffff"/><path d="m192 256h40v16h-40zm0 0" fill="#ffffff"/><path d="m248 256h48v16h-48zm0 0" fill="#ffffff"/><path d="m48 304h32v16h-32zm0 0" fill="#ffffff"/><path d="m96 304h80v16h-80zm0 0" fill="#ffffff"/><path d="m192 304h64v16h-64zm0 0" fill="#ffffff"/><path d="m80 352h32v16h-32zm0 0" fill="#ffffff"/><path d="m128 352h80v16h-80zm0 0" fill="#ffffff"/><path d="m224 352h16v16h-16zm0 0" fill="#ffffff"/><path d="m64 400h32v16h-32zm0 0" fill="#ffffff"/><path d="m112 400h64v16h-64zm0 0" fill="#ffffff"/><path d="m192 400h56v16h-56zm0 0" fill="#ffffff"/><path d="m264 400h32v16h-32zm0 0" fill="#ffffff"/><path d="m477.65625 154.34375-29.65625-29.65625v-28.6875c0-4.417969-3.582031-8-8-8v-40c0-4.417969-3.582031-8-8-8h-32c-4.417969 0-8 3.582031-8 8v40c-4.417969 0-8 3.582031-8 8v304c-.011719 1.238281.261719 2.460938.800781 3.574219l16 32c1.359375 2.726562 4.152344 4.441406 7.199219 4.425781v32h16v-32c3.046875.015625 5.839844-1.699219 7.199219-4.425781l16-32c.539062-1.113281.8125-2.335938.800781-3.574219v-252.6875l16 16v60.6875h16v-64c0-2.121094-.84375-4.15625-2.34375-5.65625zm-77.65625 229.65625v-232h32v232zm0-248v-32h32v32zm8-80h16v32h-16zm11.054688 368h-6.109376l-12-24h30.109376zm0 0" fill="#ffffff"/></g><g transform="matrix(0.11581921372343604 0.0396223626977398 -0.0396223626977398 0.11581921372343604 156.13589042504483 312.63693037663495)" id="L1_287"><path d="m456 0h-272c-13.253906 0-24 10.746094-24 24v83.6875c-24.300781-7.640625-50.789062-3.253906-71.328125 11.816406-20.539063 15.070313-32.671875 39.023438-32.671875 64.496094v8c0 4.078125 3.066406 7.503906 7.121094 7.953125l.757812.046875c-13.253906.03125-23.972656 10.804688-23.9375 24.058594.03125 13.257812 10.804688 23.972656 24.058594 23.941406v16c.023438 19 13.386719 35.371094 32 39.199219v17.214843c-54.117188 4.210938-95.9101562 49.304688-96 103.585938v48c0 4.417969 3.582031 8 8 8h256c4.417969 0 8-3.582031 8-8v-48c-.085938-54.28125-41.878906-99.382812-96-103.59375v-17.207031c9.519531-1.996094 17.980469-7.402344 23.792969-15.199219h256.207031c13.253906 0 24-10.746094 24-24v-240c0-13.253906-10.746094-24-24-24zm-272 16h272c4.417969 0 8 3.582031 8 8v24h-288v-24c0-4.417969 3.582031-8 8-8zm-48 104c35.148438.039062 63.703125 28.382812 64 63.527344-21.890625-3.808594-42.179688-13.960938-58.351562-29.191406-3.125-3.117188-8.179688-3.117188-11.304688 0-15.269531 16.554687-35.972656 27.082031-58.34375 29.664062.039062-35.328125 28.671875-63.960938 64-64zm8 80h-16c0-4.417969-3.582031-8-8-8h-16.296875c11.894531-5.234375 22.855469-12.371094 32.457031-21.128906 10.390625 8.6875 21.996094 15.804687 34.449219 21.128906h-18.609375c-4.417969 0-8 3.582031-8 8zm-64 8h32v16h-32zm80 0h32v16h-32zm48 8c4.417969 0 8 3.582031 8 8s-3.582031 8-8 8zm-152 8c0-4.417969 3.582031-8 8-8v16c-4.417969 0-8-3.582031-8-8zm104 101.191406-24 30.007813-24-30v-21.199219h48zm96 98.808594v40h-32v-40h-16v40h-144v-40h-16v40h-32v-40c.078125-47.113281 37.230469-85.816406 84.304688-87.816406l29.449218 36.800781c1.515625 1.898437 3.816406 3.003906 6.246094 3.003906s4.730469-1.105469 6.246094-3.003906l29.449218-36.800781c47.074219 2 84.226563 40.703125 84.304688 87.816406zm-64-160c0 13.253906-10.746094 24-24 24h-64c-13.253906 0-24-10.746094-24-24v-24h40c4.417969 0 8-3.582031 8-8v-16h16v16c0 4.417969 3.582031 8 8 8h40zm264 8h-248.800781c.535156-2.632812.804687-5.3125.800781-8v-16c13.253906 0 24-10.746094 24-24s-10.746094-24-24-24c4.417969 0 8-3.582031 8-8v-8c-.039062-28.542969-15.28125-54.90625-40-69.175781v-50.824219h288v200c0 4.417969-3.582031 8-8 8zm0 0" fill="#ffffff"/><path d="m192 24h16v16h-16zm0 0" fill="#ffffff"/><path d="m224 24h16v16h-16zm0 0" fill="#ffffff"/><path d="m256 24h16v16h-16zm0 0" fill="#ffffff"/><path d="m274.34375 130.34375-24 24c-3.121094 3.125-3.121094 8.1875 0 11.3125l24 24 11.3125-11.3125-18.34375-18.34375 18.34375-18.34375zm0 0" fill="#ffffff"/><path d="m381.65625 130.34375-11.3125 11.3125 18.34375 18.34375-18.34375 18.34375 11.3125 11.3125 24-24c3.121094-3.125 3.121094-8.1875 0-11.3125zm0 0" fill="#ffffff"/><path d="m304.585938 197.035156 31.96875-80.007812 14.859374 5.9375-31.96875 80.007812zm0 0" fill="#ffffff"/></g><g transform="matrix(0.11683560966573324 0.014978924101847372 -0.014978924101847372 0.11683560966573324 62.93456466789906 56.13253068261808)" id="L1_288"><path d="m328 464h-288c-13.253906 0-24-10.746094-24-24v-400c0-13.253906 10.746094-24 24-24h216v72c0 3.234375 1.949219 6.152344 4.9375 7.390625s6.429688.550781 8.71875-1.734375l18.34375-18.34375 18.34375 18.34375c1.5 1.5 3.535156 2.34375 5.65625 2.34375 1.050781.003906 2.09375-.203125 3.0625-.609375 2.988281-1.238281 4.9375-4.15625 4.9375-7.390625v-72h8c13.253906 0 24 10.746094 24 24v288h16v-288c-.027344-22.082031-17.917969-39.9726562-40-40h-288c-22.082031.0273438-39.9726562 17.917969-40 40v400c.0273438 22.082031 17.917969 39.972656 40 40h288c22.082031-.027344 39.972656-17.917969 40-40h-16c0 13.253906-10.746094 24-24 24zm-24-448v52.6875l-10.34375-10.34375c-3.125-3.121094-8.1875-3.121094-11.3125 0l-10.34375 10.34375v-52.6875zm0 0" fill="#ffffff"/><path d="m472 376h-40c0-4.417969-3.582031-8-8-8h-28.6875l-29.65625-29.65625c-1.5-1.5-3.535156-2.34375-5.65625-2.34375h-64v16h60.6875l16 16h-252.6875c-1.238281-.011719-2.460938.261719-3.574219.800781l-32 16c-2.726562 1.359375-4.441406 4.152344-4.425781 7.199219h-32v16h32c-.015625 3.046875 1.699219 5.839844 4.425781 7.199219l32 16c1.113281.539062 2.335938.8125 3.574219.800781h304c4.417969 0 8-3.582031 8-8h40c4.417969 0 8-3.582031 8-8v-32c0-4.417969-3.582031-8-8-8zm-336 8h232v32h-232zm-40 19.054688v-6.109376l24-12v30.109376zm288 12.945312v-32h32v32zm80-8h-32v-16h32zm0 0" fill="#ffffff"/><path d="m296 232c4.417969 0 8-3.582031 8-8v-32c0-4.417969-3.582031-8-8-8h-19.097656c-2.214844-8.691406-5.652344-17.023438-10.214844-24.742188l13.480469-13.480468c3.125-3.125 3.125-8.1875 0-11.3125l-22.632813-22.632813c-3.125-3.125-8.1875-3.125-11.3125 0l-13.480468 13.480469c-7.71875-4.5625-16.050782-8-24.742188-10.214844v-19.097656c0-4.417969-3.582031-8-8-8h-32c-4.417969 0-8 3.582031-8 8v19.097656c-8.691406 2.214844-17.023438 5.652344-24.742188 10.214844l-13.480468-13.480469c-3.125-3.125-8.1875-3.125-11.3125 0l-22.632813 22.632813c-3.125 3.125-3.125 8.1875 0 11.3125l13.480469 13.480468c-4.5625 7.71875-8 16.050782-10.214844 24.742188h-19.097656c-4.417969 0-8 3.582031-8 8v32c0 4.417969 3.582031 8 8 8h19.097656c2.214844 8.691406 5.652344 17.023438 10.214844 24.742188l-13.480469 13.480468c-3.125 3.125-3.125 8.1875 0 11.3125l22.632813 22.632813c3.125 3.125 8.1875 3.125 11.3125 0l13.480468-13.488281c7.71875 4.566406 16.050782 8.007812 24.742188 10.222656v19.097656c0 4.417969 3.582031 8 8 8h32c4.417969 0 8-3.582031 8-8v-19.097656c8.691406-2.214844 17.023438-5.65625 24.742188-10.222656l13.480468 13.488281c3.125 3.125 8.1875 3.125 11.3125 0l22.632813-22.632813c3.125-3.125 3.125-8.1875 0-11.3125l-13.480469-13.480468c4.5625-7.71875 8-16.050782 10.214844-24.742188zm-33.390625-9.449219c-2.007813 11.039063-6.339844 21.527344-12.714844 30.761719-2.183593 3.179688-1.792969 7.464844.9375 10.191406l12.367188 12.375-11.320313 11.320313-12.367187-12.359375c-2.726563-2.730469-7.011719-3.121094-10.191407-.9375-9.238281 6.371094-19.726562 10.707031-30.769531 12.714844-3.792969.695312-6.550781 4.003906-6.550781 7.863281v17.519531h-16v-17.519531c.003906-3.863281-2.753906-7.171875-6.550781-7.871094-11.042969-2.007813-21.53125-6.34375-30.769531-12.714844-3.179688-2.183593-7.464844-1.792969-10.191407.9375l-12.367187 12.367188-11.320313-11.320313 12.359375-12.375c2.730469-2.726562 3.121094-7.011718.9375-10.191406-6.375-9.234375-10.707031-19.722656-12.714844-30.761719-.695312-3.792969-4.003906-6.550781-7.863281-6.550781h-17.519531v-16h17.519531c3.863281.003906 7.171875-2.753906 7.871094-6.550781 2.007813-11.039063 6.339844-21.527344 12.714844-30.761719 2.183593-3.179688 1.792969-7.464844-.9375-10.191406l-12.367188-12.375 11.320313-11.320313 12.375 12.359375c2.726562 2.730469 7.011718 3.121094 10.191406.9375 9.234375-6.375 19.722656-10.707031 30.761719-12.714844 3.792969-.695312 6.550781-4.003906 6.550781-7.863281v-17.519531h16v17.519531c-.003906 3.863281 2.753906 7.171875 6.550781 7.871094 11.039063 2.007813 21.527344 6.339844 30.761719 12.714844 3.179688 2.183593 7.464844 1.792969 10.191406-.9375l12.375-12.367188 11.320313 11.320313-12.359375 12.375c-2.730469 2.726562-3.121094 7.011718-.9375 10.191406 6.375 9.234375 10.707031 19.722656 12.714844 30.761719.695312 3.792969 4.003906 6.550781 7.863281 6.550781h17.519531v16h-17.519531c-3.863281-.003906-7.171875 2.753906-7.871094 6.550781zm0 0" fill="#ffffff"/><path d="m184 152c-30.929688 0-56 25.070312-56 56s25.070312 56 56 56 56-25.070312 56-56c-.039062-30.910156-25.089844-55.960938-56-56zm0 96c-22.089844 0-40-17.910156-40-40s17.910156-40 40-40 40 17.910156 40 40c-.027344 22.082031-17.917969 39.972656-40 40zm0 0" fill="#ffffff"/><path d="m48 48h16v16h-16zm0 0" fill="#ffffff"/><path d="m80 48h16v16h-16zm0 0" fill="#ffffff"/><path d="m112 48h16v16h-16zm0 0" fill="#ffffff"/></g><g transform="matrix(0.0833333358168602 0 0 0.0833333358168602 242.5 67.5)" id="L1_289"><path d="m472 288.5h-16v-248c-.027344-22.082031-17.917969-39.972656-40-40h-352c-22.082031.027344-39.972656 17.917969-40 40v248h-16c-4.417969 0-8 3.582031-8 8v32c0 13.253906 10.746094 24 24 24h432c13.253906 0 24-10.746094 24-24v-32c0-4.417969-3.582031-8-8-8zm-432-248c0-13.253906 10.746094-24 24-24h352c13.253906 0 24 10.746094 24 24v248h-400zm424 288c0 4.417969-3.582031 8-8 8h-432c-4.417969 0-8-3.582031-8-8v-24h448zm0 0" fill="#ffffff"/><path d="m208 312.5h64v16h-64zm0 0" fill="#ffffff"/><path d="m80 48.5h16v48h-16zm0 0" fill="#ffffff"/><path d="m168 48.5h16v48h-16zm0 0" fill="#ffffff"/><path d="m200 48.5h16v48h-16zm0 0" fill="#ffffff"/><path d="m80 112.5h16v48h-16zm0 0" fill="#ffffff"/><path d="m112 112.5h16v48h-16zm0 0" fill="#ffffff"/><path d="m144 112.5h16v48h-16zm0 0" fill="#ffffff"/><path d="m376 48.5h16v48h-16zm0 0" fill="#ffffff"/><path d="m232 48.5h16v48h-16zm0 0" fill="#ffffff"/><path d="m232 112.5h16v48h-16zm0 0" fill="#ffffff"/><path d="m376 112.5h16v48h-16zm0 0" fill="#ffffff"/><path d="m128 96.5h8c8.835938 0 16-7.164062 16-16v-16c0-8.835938-7.164062-16-16-16h-8c-8.835938 0-16 7.164062-16 16v16c0 8.835938 7.164062 16 16 16zm0-32h8v16h-8zm0 0" fill="#ffffff"/><path d="m176 128.5v16c0 8.835938 7.164062 16 16 16h8c8.835938 0 16-7.164062 16-16v-16c0-8.835938-7.164062-16-16-16h-8c-8.835938 0-16 7.164062-16 16zm16 0h8v16h-8zm0 0" fill="#ffffff"/><path d="m280 96.5h8c8.835938 0 16-7.164062 16-16v-16c0-8.835938-7.164062-16-16-16h-8c-8.835938 0-16 7.164062-16 16v16c0 8.835938 7.164062 16 16 16zm0-32h8v16h-8zm0 0" fill="#ffffff"/><path d="m280 160.5h8c8.835938 0 16-7.164062 16-16v-16c0-8.835938-7.164062-16-16-16h-8c-8.835938 0-16 7.164062-16 16v16c0 8.835938 7.164062 16 16 16zm0-32h8v16h-8zm0 0" fill="#ffffff"/><path d="m336 160.5h8c8.835938 0 16-7.164062 16-16v-16c0-8.835938-7.164062-16-16-16h-8c-8.835938 0-16 7.164062-16 16v16c0 8.835938 7.164062 16 16 16zm0-32h8v16h-8zm0 0" fill="#ffffff"/><path d="m376 176.5h16v48h-16zm0 0" fill="#ffffff"/><path d="m344 176.5h16v48h-16zm0 0" fill="#ffffff"/><path d="m312 176.5h16v48h-16zm0 0" fill="#ffffff"/><path d="m224 176.5h16v48h-16zm0 0" fill="#ffffff"/><path d="m80 176.5h16v48h-16zm0 0" fill="#ffffff"/><path d="m272 224.5h8c8.835938 0 16-7.164062 16-16v-16c0-8.835938-7.164062-16-16-16h-8c-8.835938 0-16 7.164062-16 16v16c0 8.835938 7.164062 16 16 16zm0-32h8v16h-8zm0 0" fill="#ffffff"/><path d="m184 224.5h8c8.835938 0 16-7.164062 16-16v-16c0-8.835938-7.164062-16-16-16h-8c-8.835938 0-16 7.164062-16 16v16c0 8.835938 7.164062 16 16 16zm0-32h8v16h-8zm0 0" fill="#ffffff"/><path d="m128 224.5h8c8.835938 0 16-7.164062 16-16v-16c0-8.835938-7.164062-16-16-16h-8c-8.835938 0-16 7.164062-16 16v16c0 8.835938 7.164062 16 16 16zm0-32h8v16h-8zm0 0" fill="#ffffff"/><path d="m336 96.5h8c8.835938 0 16-7.164062 16-16v-16c0-8.835938-7.164062-16-16-16h-8c-8.835938 0-16 7.164062-16 16v16c0 8.835938 7.164062 16 16 16zm0-32h8v16h-8zm0 0" fill="#ffffff"/><path d="m56 240.5h368v16h-368zm0 0" fill="#ffffff"/></g><g transform="matrix(0.14934582473765337 0.018287244472608353 -0.018287244472608353 0.14934582473765337 314.37154161754444 128.6498642126344)" id="L1_290"><path d="m440 64h-24v-40c0-13.253906-10.746094-24-24-24h-304c-13.253906 0-24 10.746094-24 24v40h-24c-22.082031.027344-39.9726562 17.917969-40 40v240c.0273438 22.082031 17.917969 39.972656 40 40h134.9375l-6 48h-8.9375c-8.835938 0-16 7.164062-16 16v16h-16v16h224v-16h-16v-16c0-8.835938-7.164062-16-16-16h-8.9375l-6-48h134.9375c22.082031-.027344 39.972656-17.917969 40-40v-240c-.027344-22.082031-17.917969-39.972656-40-40zm-360 0h320v200c0 4.417969-3.582031 8-8 8h-304c-4.417969 0-8-3.582031-8-8zm8-48h304c4.417969 0 8 3.582031 8 8v24h-320v-24c0-4.417969 3.582031-8 8-8zm-48 64h24v184c0 13.253906 10.746094 24 24 24h304c13.253906 0 24-10.746094 24-24v-184h24c13.253906 0 24 10.746094 24 24v200h-448v-200c0-13.253906 10.746094-24 24-24zm280 384h-160v-16h160zm-25.0625-32h-109.875l6-48h97.875zm145.0625-64h-400c-13.253906 0-24-10.746094-24-24v-24h448v24c0 13.253906-10.746094 24-24 24zm0 0" fill="#ffffff"/><path d="m424 336h16v16h-16zm0 0" fill="#ffffff"/><path d="m96 24h16v16h-16zm0 0" fill="#ffffff"/><path d="m128 24h16v16h-16zm0 0" fill="#ffffff"/><path d="m160 24h16v16h-16zm0 0" fill="#ffffff"/><path d="m186.34375 149.65625 11.3125-11.3125-18.34375-18.34375 18.34375-18.34375-11.3125-11.3125-24 24c-3.121094 3.125-3.121094 8.1875 0 11.3125zm0 0" fill="#ffffff"/><path d="m293.65625 149.65625 24-24c3.121094-3.125 3.121094-8.1875 0-11.3125l-24-24-11.3125 11.3125 18.34375 18.34375-18.34375 18.34375zm0 0" fill="#ffffff"/><path d="m216.566406 157.027344 32.007813-79.996094 14.863281 5.945312-32.007812 79.996094zm0 0" fill="#ffffff"/><path d="m144 176h16v16h-16zm0 0" fill="#ffffff"/><path d="m176 176h48v16h-48zm0 0" fill="#ffffff"/><path d="m160 208h32v16h-32zm0 0" fill="#ffffff"/><path d="m208 208h32v16h-32zm0 0" fill="#ffffff"/><path d="m128 240h96v16h-96zm0 0" fill="#ffffff"/></g><g transform="matrix(0.1041666641831398 0 0 0.1041666641831398 62.5 237.5)" id="L1_291"><path d="m216 328h48v16h-48zm0 0" fill="#ffffff"/><path d="m176 24h16v16h-16zm0 0" fill="#ffffff"/><path d="m208 24h32v16h-32zm0 0" fill="#ffffff"/><path d="m273.335938 161.976562 11.921874-11.921874-11.3125-11.3125-11.921874 11.921874c-4.253907-2.839843-9.015626-4.828124-14.023438-5.863281v-16.800781h-16v16.800781c-5.007812 1.03125-9.769531 3.019531-14.023438 5.855469l-11.921874-11.921875-11.3125 11.3125 11.921874 11.921875c-2.839843 4.253906-4.832031 9.019531-5.863281 14.03125h-16.800781v16h16.800781c1.03125 5.007812 3.019531 9.769531 5.855469 14.023438l-11.921875 11.921874 11.3125 11.3125 11.921875-11.921874c4.253906 2.839843 9.019531 4.832031 14.03125 5.863281v16.800781h16v-16.800781c5.007812-1.03125 9.769531-3.019531 14.023438-5.855469l11.921874 11.921875 11.3125-11.3125-11.921874-11.921875c2.839843-4.253906 4.832031-9.019531 5.863281-14.03125h16.800781v-16h-16.800781c-1.03125-5.007812-3.023438-9.769531-5.863281-14.023438zm-33.335938 46.023438c-13.253906 0-24-10.746094-24-24s10.746094-24 24-24 24 10.746094 24 24-10.746094 24-24 24zm0 0" fill="#ffffff"/><path d="m456 0h-48c-13.253906 0-24 10.746094-24 24v48c0 13.253906 10.746094 24 24 24h48c13.253906 0 24-10.746094 24-24v-48c0-13.253906-10.746094-24-24-24zm8 72c0 4.417969-3.582031 8-8 8h-48c-4.417969 0-8-3.582031-8-8v-48c0-4.417969 3.582031-8 8-8h48c4.417969 0 8 3.582031 8 8zm0 0" fill="#ffffff"/><path d="m456 136h-48c-13.253906 0-24 10.746094-24 24v48c0 13.253906 10.746094 24 24 24h48c13.253906 0 24-10.746094 24-24v-48c0-13.253906-10.746094-24-24-24zm8 72c0 4.417969-3.582031 8-8 8h-48c-4.417969 0-8-3.582031-8-8v-48c0-4.417969 3.582031-8 8-8h48c4.417969 0 8 3.582031 8 8zm0 0" fill="#ffffff"/><path d="m456 272h-48c-13.253906 0-24 10.746094-24 24v48c0 13.253906 10.746094 24 24 24h48c13.253906 0 24-10.746094 24-24v-48c0-13.253906-10.746094-24-24-24zm8 72c0 4.417969-3.582031 8-8 8h-48c-4.417969 0-8-3.582031-8-8v-48c0-4.417969 3.582031-8 8-8h48c4.417969 0 8 3.582031 8 8zm0 0" fill="#ffffff"/><path d="m72 0h-48c-13.253906 0-24 10.746094-24 24v48c0 13.253906 10.746094 24 24 24h48c13.253906 0 24-10.746094 24-24v-48c0-13.253906-10.746094-24-24-24zm8 72c0 4.417969-3.582031 8-8 8h-48c-4.417969 0-8-3.582031-8-8v-48c0-4.417969 3.582031-8 8-8h48c4.417969 0 8 3.582031 8 8zm0 0" fill="#ffffff"/><path d="m72 136h-48c-13.253906 0-24 10.746094-24 24v48c0 13.253906 10.746094 24 24 24h48c13.253906 0 24-10.746094 24-24v-48c0-13.253906-10.746094-24-24-24zm8 72c0 4.417969-3.582031 8-8 8h-48c-4.417969 0-8-3.582031-8-8v-48c0-4.417969 3.582031-8 8-8h48c4.417969 0 8 3.582031 8 8zm0 0" fill="#ffffff"/><path d="m72 272h-48c-13.253906 0-24 10.746094-24 24v48c0 13.253906 10.746094 24 24 24h48c13.253906 0 24-10.746094 24-24v-48c0-13.253906-10.746094-24-24-24zm8 72c0 4.417969-3.582031 8-8 8h-48c-4.417969 0-8-3.582031-8-8v-48c0-4.417969 3.582031-8 8-8h48c4.417969 0 8 3.582031 8 8zm0 0" fill="#ffffff"/><path d="m373.65625 61.65625-11.3125-11.3125-10.34375 10.34375v-20.6875c-.027344-22.082031-17.917969-39.9726562-40-40h-144c-22.082031.0273438-39.972656 17.917969-40 40v20.6875l-10.34375-10.34375-11.3125 11.3125 21.65625 21.65625v92.6875h-16v16h16v92.6875l-21.65625 21.65625 11.3125 11.3125 10.34375-10.34375v20.6875c.027344 22.082031 17.917969 39.972656 40 40h144c22.082031-.027344 39.972656-17.917969 40-40v-20.6875l10.34375 10.34375 11.3125-11.3125-21.65625-21.65625v-92.6875h16v-16h-16v-92.6875zm-205.65625-45.65625h144c13.253906 0 24 10.746094 24 24v8h-192v-8c0-13.253906 10.746094-24 24-24zm144 336h-144c-13.253906 0-24-10.746094-24-24v-8h192v8c0 13.253906-10.746094 24-24 24zm24-176h-24v16h24v76.6875l-34.34375-34.34375-11.3125 11.3125 45.65625 45.65625v12.6875h-192v-12.6875l45.65625-45.65625-11.3125-11.3125-34.34375 34.34375v-76.6875h24v-16h-24v-76.6875l34.34375 34.34375 11.3125-11.3125-45.65625-45.65625v-12.6875h192v12.6875l-45.65625 45.65625 11.3125 11.3125 34.34375-34.34375zm0 0" fill="#ffffff"/></g><g transform="matrix(0.1256928658884197 -0.05217439536789225 0.05217439536789225 0.1256928658884197 225.121089976733 242.26980481028696)" id="L1_292"><path d="m88.5 328h48v16h-48zm0 0" fill="#ffffff"/><path d="m48.5 24h16v16h-16zm0 0" fill="#ffffff"/><path d="m80.5 24h32v16h-32zm0 0" fill="#ffffff"/><path d="m392.5 304.640625v-184.640625c0-30.929688-25.070312-56-56-56s-56 25.070312-56 56v288c-.039062 30.910156-25.089844 55.960938-56 56h-48c-30.910156-.039062-55.960938-25.089844-56-56v-40h64c22.082031-.027344 39.972656-17.917969 40-40v-288c-.027344-22.082031-17.917969-39.9726562-40-40h-144c-22.082031.0273438-39.972656 17.917969-40 40v288c.027344 22.082031 17.917969 39.972656 40 40h64v40c.042969 39.746094 32.253906 71.957031 72 72h48c39.746094-.042969 71.957031-32.253906 72-72v-288c0-22.089844 17.910156-40 40-40s40 17.910156 40 40v184.640625c-27.515625 3.992187-47.945312 27.554687-48 55.359375v64c0 30.929688 25.070312 56 56 56s56-25.070312 56-56v-64c-.054688-27.804688-20.484375-51.367188-48-55.359375zm-184-.640625h-192v-240h192zm-168-288h144c13.253906 0 24 10.746094 24 24v8h-192v-8c0-13.253906 10.746094-24 24-24zm-24 312v-8h192v8c0 13.253906-10.746094 24-24 24h-144c-13.253906 0-24-10.746094-24-24zm368-8c22.082031.027344 39.972656 17.917969 40 40v8h-80v-8c.027344-22.082031 17.917969-39.972656 40-40zm0 144c-22.082031-.027344-39.972656-17.917969-40-40v-40h80v40c-.027344 22.082031-17.917969 39.972656-40 40zm0 0" fill="#ffffff"/><path d="m376.5 336h16v16h-16zm0 0" fill="#ffffff"/><path d="m56.5 168h16v16h-16zm0 0" fill="#ffffff"/><path d="m88.5 168h48v16h-48zm0 0" fill="#ffffff"/><path d="m72.5 200h32v16h-32zm0 0" fill="#ffffff"/><path d="m120.5 200h32v16h-32zm0 0" fill="#ffffff"/><path d="m88.5 232h96v16h-96zm0 0" fill="#ffffff"/><path d="m34.84375 125.65625 16 16 11.3125-11.3125-10.34375-10.34375 10.34375-10.34375-11.3125-11.3125-16 16c-3.121094 3.125-3.121094 8.1875 0 11.3125zm0 0" fill="#ffffff"/><path d="m102.15625 141.65625 16-16c3.121094-3.125 3.121094-8.1875 0-11.3125l-16-16-11.3125 11.3125 10.34375 10.34375-10.34375 10.34375zm0 0" fill="#ffffff"/></g><g transform="matrix(0.14086417820268365 -0.03774444279188284 0.03774444279188284 0.14086417820268365 132.73784085388127 150.17175590669737)" id="L1_293"><path d="m216 384h48v16h-48zm0 0" fill="#ffffff"/><path d="m176 80h16v16h-16zm0 0" fill="#ffffff"/><path d="m208 80h32v16h-32zm0 0" fill="#ffffff"/><path d="m472 136h-120v-40c-.027344-22.082031-17.917969-39.972656-40-40h-144c-22.082031.027344-39.972656 17.917969-40 40v72h-120c-4.417969 0-8 3.582031-8 8v96c0 4.417969 3.582031 8 8 8h64v40c0 4.417969 3.582031 8 8 8h48v56c.027344 22.082031 17.917969 39.972656 40 40h144c22.082031-.027344 39.972656-17.917969 40-40v-88h40c4.417969 0 8-3.582031 8-8v-40h72c4.417969 0 8-3.582031 8-8v-96c0-4.417969-3.582031-8-8-8zm-304-64h144c13.253906 0 24 10.746094 24 24v8h-192v-8c0-13.253906 10.746094-24 24-24zm-152 112h144v80h-144zm72 128v-32h40v32zm224 96h-144c-13.253906 0-24-10.746094-24-24v-8h192v8c0 13.253906-10.746094 24-24 24zm24-48h-192v-32h96v-16h-96v-32h24c4.417969 0 8-3.582031 8-8v-96c0-4.417969-3.582031-8-8-8h-24v-48h192v16h-24c-4.417969 0-8 3.582031-8 8v96c0 4.417969 3.582031 8 8 8h24v32h-72v16h72zm48-80h-32v-32h32zm80-48h-144v-80h144zm0 0" fill="#ffffff"/><path d="m40 96h16v-16h16v-16h-16v-16h-16v16h-16v16h16zm0 0" fill="#ffffff"/><path d="m424 48h16v-16h16v-16h-16v-16h-16v16h-16v16h16zm0 0" fill="#ffffff"/><path d="m408 400h-16v16h-16v16h16v16h16v-16h16v-16h-16zm0 0" fill="#ffffff"/><path d="m32 336h-16v16h-16v16h16v16h16v-16h16v-16h-16zm0 0" fill="#ffffff"/><path d="m32 200h16v16h-16zm0 0" fill="#ffffff"/><path d="m64 200h64v16h-64zm0 0" fill="#ffffff"/><path d="m48 232h64v16h-64zm0 0" fill="#ffffff"/><path d="m336 168h32v16h-32zm0 0" fill="#ffffff"/><path d="m384 168h64v16h-64zm0 0" fill="#ffffff"/><path d="m352 200h80v16h-80zm0 0" fill="#ffffff"/></g><g transform="matrix(0.0416666679084301 0 0 0.0416666679084301 252.5 340)" id="L1_294"><path d="m440 64h-64v16h64c13.253906 0 24 10.746094 24 24v200h-448v-200c0-13.253906 10.746094-24 24-24h64v-16h-64c-22.082031.027344-39.9726562 17.917969-40 40v240c.0273438 22.082031 17.917969 39.972656 40 40h134.9375l-6 48h-8.9375c-8.835938 0-16 7.164062-16 16v16h-16v16h224v-16h-16v-16c0-8.835938-7.164062-16-16-16h-8.9375l-6-48h134.9375c22.082031-.027344 39.972656-17.917969 40-40v-240c-.027344-22.082031-17.917969-39.972656-40-40zm-120 400h-160v-16h160zm-25.0625-32h-109.875l6-48h97.875zm145.0625-64h-400c-13.253906 0-24-10.746094-24-24v-24h448v24c0 13.253906-10.746094 24-24 24zm0 0" fill="#ffffff"/><path d="m424 336h16v16h-16zm0 0" fill="#ffffff"/><path d="m369.519531 192c2.859375 0 5.5-1.523438 6.929688-4 1.429687-2.476562 1.429687-5.523438 0-8-9.5625-16.589844-26.945313-27.136719-46.078125-27.945312-19.128906-.8125-37.34375 8.222656-48.273438 23.945312h-84.195312c-10.929688-15.722656-29.144532-24.757812-48.273438-23.945312-19.132812.808593-36.515625 11.355468-46.078125 27.945312-1.429687 2.476562-1.429687 5.523438 0 8 1.429688 2.476562 4.070313 4 6.929688 4h27.75l5.335937 16-5.335937 16h-27.75c-2.859375 0-5.5 1.523438-6.929688 4-1.429687 2.476562-1.429687 5.523438 0 8 9.5625 16.589844 26.945313 27.136719 46.078125 27.945312 19.128906.8125 37.34375-8.222656 48.273438-23.945312h84.195312c10.929688 15.722656 29.144532 24.757812 48.273438 23.945312 19.132812-.808593 36.515625-11.355468 46.078125-27.945312 1.429687-2.476562 1.429687-5.523438 0-8-1.429688-2.476562-4.070313-4-6.929688-4h-27.75l-5.335937-16 5.335937-16zm-49.105469 18.527344 8 24c1.089844 3.265625 4.144532 5.46875 7.585938 5.472656h15.921875c-9.132813 6.867188-20.773437 9.484375-31.964844 7.1875-11.195312-2.292969-20.863281-9.28125-26.558593-19.1875-1.425782-2.472656-4.0625-3.996094-6.917969-4h-92.960938c-2.855469.003906-5.492187 1.527344-6.917969 4-5.695312 9.90625-15.363281 16.894531-26.558593 19.1875-11.191407 2.296875-22.832031-.320312-31.964844-7.1875h15.921875c3.441406-.003906 6.496094-2.207031 7.585938-5.472656l8-24c.558593-1.636719.558593-3.417969 0-5.054688l-8-24c-1.089844-3.265625-4.144532-5.46875-7.585938-5.472656h-15.921875c9.132813-6.867188 20.773437-9.484375 31.964844-7.1875 11.195312 2.292969 20.863281 9.28125 26.558593 19.1875 1.425782 2.472656 4.0625 3.996094 6.917969 4h92.960938c2.855469-.003906 5.492187-1.527344 6.917969-4 5.695312-9.90625 15.363281-16.894531 26.558593-19.1875 11.191407-2.296875 22.832031.320312 31.964844 7.1875h-15.921875c-3.441406.003906-6.496094 2.207031-7.585938 5.472656l-8 24c-.558593 1.636719-.558593 3.417969 0 5.054688zm0 0" fill="#ffffff"/><path d="m139.375 94.824219c-2.011719 4.152343-3.769531 8.429687-5.253906 12.800781l-31.257813 4.464844c-3.9375.5625-6.859375 3.933594-6.863281 7.910156v32h16v-25.0625l29.359375-4.195312c3.105469-.445313 5.667969-2.664063 6.542969-5.679688 1.929687-6.667969 4.574218-13.105469 7.898437-19.199219 1.507813-2.753906 1.269531-6.136719-.617187-8.648437l-17.757813-23.6875 24.125-24.128906 23.6875 17.800781c2.511719 1.886719 5.894531 2.125 8.648438.617187 6.097656-3.320312 12.535156-5.964844 19.203125-7.894531 3.011718-.882813 5.234375-3.445313 5.679687-6.554687l4.167969-29.367188h34.125l4.183594 29.351562c.445312 3.109376 2.667968 5.671876 5.683594 6.550782 6.664062 1.933594 13.101562 4.578125 19.199218 7.898437 2.746094 1.507813 6.121094 1.273438 8.632813-.601562l23.6875-17.757813 24.125 24.125-17.773438 23.671875c-1.886719 2.511719-2.125 5.894531-.617187 8.648438 3.320312 6.09375 5.96875 12.535156 7.894531 19.203125.878906 3.011718 3.4375 5.230468 6.546875 5.679687l29.359375 4.191407v25.039062h16v-32c0-3.980469-2.925781-7.355469-6.863281-7.921875l-31.257813-4.460937c-1.484375-4.371094-3.242187-8.648438-5.253906-12.800782l18.925781-25.214844c2.390625-3.183593 2.078125-7.640624-.734375-10.457031l-33.953125-33.9375c-2.8125-2.808593-7.265625-3.125-10.449218-.742187l-25.230469 18.910156c-4.152344-2.015625-8.429688-3.769531-12.800781-5.253906l-4.445313-31.25c-.5625-3.941406-3.9375-6.871094-7.921875-6.871094h-48c-3.984375 0-7.359375 2.929688-7.921875 6.871094l-4.460937 31.25c-4.371094 1.484375-8.648438 3.238281-12.800782 5.253906l-25.214844-18.910156c-3.183593-2.382813-7.636718-2.066406-10.449218.742187l-33.953125 33.945313c-2.8125 2.816406-3.125 7.273437-.734375 10.457031zm0 0" fill="#ffffff"/><path d="m232 32h16v16h-16zm0 0" fill="#ffffff"/><path d="m155.152344 70.460938 11.3125-11.3125 11.3125 11.3125-11.3125 11.316406zm0 0" fill="#ffffff"/><path d="m302.226562 70.464844 11.3125-11.3125 11.316407 11.3125-11.316407 11.316406zm0 0" fill="#ffffff"/><path d="m176 144h16c0-26.507812 21.492188-48 48-48s48 21.492188 48 48h16c0-35.347656-28.652344-64-64-64s-64 28.652344-64 64zm0 0" fill="#ffffff"/></g><g transform="matrix(0.18111109242920032 0.04852857095672264 -0.04852857095672264 0.18111109242920032 -34.68040815023161 294.1149177654767)" id="L1_295"><path d="m472 320h-16v-248c-.027344-22.082031-17.917969-39.972656-40-40h-16v-8c0-13.253906-10.746094-24-24-24h-272c-13.253906 0-24 10.746094-24 24v8h-16c-22.082031.027344-39.972656 17.917969-40 40v248h-16c-4.417969 0-8 3.582031-8 8v32c0 13.253906 10.746094 24 24 24h432c13.253906 0 24-10.746094 24-24v-32c0-4.417969-3.582031-8-8-8zm-376-256h288v200c0 4.417969-3.582031 8-8 8h-272c-4.417969 0-8-3.582031-8-8zm8-48h272c4.417969 0 8 3.582031 8 8v24h-288v-24c0-4.417969 3.582031-8 8-8zm-64 56c0-13.253906 10.746094-24 24-24h16v216c0 13.253906 10.746094 24 24 24h272c13.253906 0 24-10.746094 24-24v-216h16c13.253906 0 24 10.746094 24 24v248h-400zm424 288c0 4.417969-3.582031 8-8 8h-432c-4.417969 0-8-3.582031-8-8v-24h448zm0 0" fill="#ffffff"/><path d="m208 344h64v16h-64zm0 0" fill="#ffffff"/><path d="m112 24h16v16h-16zm0 0" fill="#ffffff"/><path d="m144 24h16v16h-16zm0 0" fill="#ffffff"/><path d="m176 24h16v16h-16zm0 0" fill="#ffffff"/><path d="m240 232c35.347656 0 64-28.652344 64-64s-28.652344-64-64-64-64 28.652344-64 64c.039062 35.328125 28.671875 63.960938 64 64zm0-112c26.507812 0 48 21.492188 48 48s-21.492188 48-48 48-48-21.492188-48-48c.027344-26.5 21.5-47.972656 48-48zm0 0" fill="#ffffff"/><path d="m223.023438 196.28125 16.976562-16.96875 16.976562 16.96875 11.3125-11.3125-16.976562-16.96875 16.976562-16.96875-11.3125-11.3125-16.976562 16.96875-16.976562-16.96875-11.3125 11.3125 16.976562 16.96875-16.976562 16.96875zm0 0" fill="#ffffff"/><path d="m312 96h40v16h-40zm0 0" fill="#ffffff"/><path d="m144 224h40v16h-40zm0 0" fill="#ffffff"/><path d="m312 224h40v16h-40zm0 0" fill="#ffffff"/><path d="m320 128h32v16h-32zm0 0" fill="#ffffff"/><path d="m320 160h32v16h-32zm0 0" fill="#ffffff"/><path d="m320 192h32v16h-32zm0 0" fill="#ffffff"/><path d="m128 128h32v16h-32zm0 0" fill="#ffffff"/><path d="m144 160h16v16h-16zm0 0" fill="#ffffff"/><path d="m128 192h32v16h-32zm0 0" fill="#ffffff"/><path d="m130.34375 117.65625 11.3125-11.3125-10.34375-10.34375 10.34375-10.34375-11.3125-11.3125-16 16c-3.121094 3.125-3.121094 8.1875 0 11.3125zm0 0" fill="#ffffff"/><path d="m173.65625 117.65625 16-16c3.121094-3.125 3.121094-8.1875 0-11.3125l-16-16-11.3125 11.3125 10.34375 10.34375-10.34375 10.34375zm0 0" fill="#ffffff"/></g></defs><g fi:class="KUsePattern"><pattern id="pattern_L1_286" width="350" height="350" patternUnits="userSpaceOnUse"><use xlink:href="#L1_286" x="-350" y="-350"/><use xlink:href="#L1_286" x="0" y="-350"/><use xlink:href="#L1_286" x="350" y="-350"/><use xlink:href="#L1_286" x="-350" y="0"/><use xlink:href="#L1_286" x="0" y="0"/><use xlink:href="#L1_286" x="350" y="0"/><use xlink:href="#L1_286" x="-350" y="350"/><use xlink:href="#L1_286" x="0" y="350"/><use xlink:href="#L1_286" x="350" y="350"/></pattern><rect x="0" y="0" width="100%" height="100%" fill="url(#pattern_L1_286)"/></g><g fi:class="KUsePattern"><pattern id="pattern_L1_287" width="350" height="350" patternUnits="userSpaceOnUse"><use xlink:href="#L1_287" x="-350" y="-350"/><use xlink:href="#L1_287" x="0" y="-350"/><use xlink:href="#L1_287" x="350" y="-350"/><use xlink:href="#L1_287" x="-350" y="0"/><use xlink:href="#L1_287" x="0" y="0"/><use xlink:href="#L1_287" x="350" y="0"/><use xlink:href="#L1_287" x="-350" y="350"/><use xlink:href="#L1_287" x="0" y="350"/><use xlink:href="#L1_287" x="350" y="350"/></pattern><rect x="0" y="0" width="100%" height="100%" fill="url(#pattern_L1_287)"/></g><g fi:class="KUsePattern"><pattern id="pattern_L1_288" width="350" height="350" patternUnits="userSpaceOnUse"><use xlink:href="#L1_288" x="-350" y="-350"/><use xlink:href="#L1_288" x="0" y="-350"/><use xlink:href="#L1_288" x="350" y="-350"/><use xlink:href="#L1_288" x="-350" y="0"/><use xlink:href="#L1_288" x="0" y="0"/><use xlink:href="#L1_288" x="350" y="0"/><use xlink:href="#L1_288" x="-350" y="350"/><use xlink:href="#L1_288" x="0" y="350"/><use xlink:href="#L1_288" x="350" y="350"/></pattern><rect x="0" y="0" width="100%" height="100%" fill="url(#pattern_L1_288)"/></g><g fi:class="KUsePattern"><pattern id="pattern_L1_289" width="350" height="350" patternUnits="userSpaceOnUse"><use xlink:href="#L1_289" x="-350" y="-350"/><use xlink:href="#L1_289" x="0" y="-350"/><use xlink:href="#L1_289" x="350" y="-350"/><use xlink:href="#L1_289" x="-350" y="0"/><use xlink:href="#L1_289" x="0" y="0"/><use xlink:href="#L1_289" x="350" y="0"/><use xlink:href="#L1_289" x="-350" y="350"/><use xlink:href="#L1_289" x="0" y="350"/><use xlink:href="#L1_289" x="350" y="350"/></pattern><rect x="0" y="0" width="100%" height="100%" fill="url(#pattern_L1_289)"/></g><g fi:class="KUsePattern"><pattern id="pattern_L1_290" width="350" height="350" patternUnits="userSpaceOnUse"><use xlink:href="#L1_290" x="-350" y="-350"/><use xlink:href="#L1_290" x="0" y="-350"/><use xlink:href="#L1_290" x="350" y="-350"/><use xlink:href="#L1_290" x="-350" y="0"/><use xlink:href="#L1_290" x="0" y="0"/><use xlink:href="#L1_290" x="350" y="0"/><use xlink:href="#L1_290" x="-350" y="350"/><use xlink:href="#L1_290" x="0" y="350"/><use xlink:href="#L1_290" x="350" y="350"/></pattern><rect x="0" y="0" width="100%" height="100%" fill="url(#pattern_L1_290)"/></g><g fi:class="KUsePattern"><pattern id="pattern_L1_291" width="350" height="350" patternUnits="userSpaceOnUse"><use xlink:href="#L1_291" x="-350" y="-350"/><use xlink:href="#L1_291" x="0" y="-350"/><use xlink:href="#L1_291" x="350" y="-350"/><use xlink:href="#L1_291" x="-350" y="0"/><use xlink:href="#L1_291" x="0" y="0"/><use xlink:href="#L1_291" x="350" y="0"/><use xlink:href="#L1_291" x="-350" y="350"/><use xlink:href="#L1_291" x="0" y="350"/><use xlink:href="#L1_291" x="350" y="350"/></pattern><rect x="0" y="0" width="100%" height="100%" fill="url(#pattern_L1_291)"/></g><g fi:class="KUsePattern"><pattern id="pattern_L1_292" width="350" height="350" patternUnits="userSpaceOnUse"><use xlink:href="#L1_292" x="-350" y="-350"/><use xlink:href="#L1_292" x="0" y="-350"/><use xlink:href="#L1_292" x="350" y="-350"/><use xlink:href="#L1_292" x="-350" y="0"/><use xlink:href="#L1_292" x="0" y="0"/><use xlink:href="#L1_292" x="350" y="0"/><use xlink:href="#L1_292" x="-350" y="350"/><use xlink:href="#L1_292" x="0" y="350"/><use xlink:href="#L1_292" x="350" y="350"/></pattern><rect x="0" y="0" width="100%" height="100%" fill="url(#pattern_L1_292)"/></g><g fi:class="KUsePattern"><pattern id="pattern_L1_293" width="350" height="350" patternUnits="userSpaceOnUse"><use xlink:href="#L1_293" x="-350" y="-350"/><use xlink:href="#L1_293" x="0" y="-350"/><use xlink:href="#L1_293" x="350" y="-350"/><use xlink:href="#L1_293" x="-350" y="0"/><use xlink:href="#L1_293" x="0" y="0"/><use xlink:href="#L1_293" x="350" y="0"/><use xlink:href="#L1_293" x="-350" y="350"/><use xlink:href="#L1_293" x="0" y="350"/><use xlink:href="#L1_293" x="350" y="350"/></pattern><rect x="0" y="0" width="100%" height="100%" fill="url(#pattern_L1_293)"/></g><g fi:class="KUsePattern"><pattern id="pattern_L1_294" width="350" height="350" patternUnits="userSpaceOnUse"><use xlink:href="#L1_294" x="-350" y="-350"/><use xlink:href="#L1_294" x="0" y="-350"/><use xlink:href="#L1_294" x="350" y="-350"/><use xlink:href="#L1_294" x="-350" y="0"/><use xlink:href="#L1_294" x="0" y="0"/><use xlink:href="#L1_294" x="350" y="0"/><use xlink:href="#L1_294" x="-350" y="350"/><use xlink:href="#L1_294" x="0" y="350"/><use xlink:href="#L1_294" x="350" y="350"/></pattern><rect x="0" y="0" width="100%" height="100%" fill="url(#pattern_L1_294)"/></g><g fi:class="KUsePattern"><pattern id="pattern_L1_295" width="350" height="350" patternUnits="userSpaceOnUse"><use xlink:href="#L1_295" x="-350" y="-350"/><use xlink:href="#L1_295" x="0" y="-350"/><use xlink:href="#L1_295" x="350" y="-350"/><use xlink:href="#L1_295" x="-350" y="0"/><use xlink:href="#L1_295" x="0" y="0"/><use xlink:href="#L1_295" x="350" y="0"/><use xlink:href="#L1_295" x="-350" y="350"/><use xlink:href="#L1_295" x="0" y="350"/><use xlink:href="#L1_295" x="350" y="350"/></pattern><rect x="0" y="0" width="100%" height="100%" fill="url(#pattern_L1_295)"/></g></svg>