<svg xmlns="http://www.w3.org/2000/svg" xmlns:xlink="http://www.w3.org/1999/xlink" xmlns:fi="http://pattern.flaticon.com/" x="0" y="0" width="700" height="350" viewBox="0 0 700 350"><rect x="0px" y="0px" width="100%" height="100%" opacity="1" fill="#faf6ff"/><defs><g transform="matrix(0.18111109242920032 0.04852857095672264 -0.04852857095672264 0.18111109242920032 -32.15692246048203 294.44714095915833)" id="L1_429"><path d="m472 416h-16v-248c-.027344-22.082031-17.917969-39.972656-40-40v16c13.253906 0 24 10.746094 24 24v248h-400v-248c0-13.253906 10.746094-24 24-24h216v-16h-216c-22.082031.027344-39.972656 17.917969-40 40v248h-16c-4.417969 0-8 3.582031-8 8v32c0 13.253906 10.746094 24 24 24h432c13.253906 0 24-10.746094 24-24v-32c0-4.417969-3.582031-8-8-8zm-8 40c0 4.417969-3.582031 8-8 8h-432c-4.417969 0-8-3.582031-8-8v-24h448zm0 0" fill="#ebebeb"/><path d="m208 440h64v16h-64zm0 0" fill="#ebebeb"/><path d="m120 48c13.253906 0 24-10.746094 24-24s-10.746094-24-24-24-24 10.746094-24 24 10.746094 24 24 24zm0-32c4.417969 0 8 3.582031 8 8s-3.582031 8-8 8-8-3.582031-8-8 3.582031-8 8-8zm0 0" fill="#ebebeb"/><path d="m64 0h16v48h-16zm0 0" fill="#ebebeb"/><path d="m160 0h16v48h-16zm0 0" fill="#ebebeb"/><path d="m216 96c13.253906 0 24-10.746094 24-24s-10.746094-24-24-24-24 10.746094-24 24 10.746094 24 24 24zm0-32c4.417969 0 8 3.582031 8 8s-3.582031 8-8 8-8-3.582031-8-8 3.582031-8 8-8zm0 0" fill="#ebebeb"/><path d="m296 200c0-13.253906-10.746094-24-24-24s-24 10.746094-24 24 10.746094 24 24 24 24-10.746094 24-24zm-32 0c0-4.417969 3.582031-8 8-8s8 3.582031 8 8-3.582031 8-8 8-8-3.582031-8-8zm0 0" fill="#ebebeb"/><path d="m272 328c0 13.253906 10.746094 24 24 24s24-10.746094 24-24-10.746094-24-24-24-24 10.746094-24 24zm32 0c0 4.417969-3.582031 8-8 8s-8-3.582031-8-8 3.582031-8 8-8 8 3.582031 8 8zm0 0" fill="#ebebeb"/><path d="m376 160c13.253906 0 24-10.746094 24-24s-10.746094-24-24-24-24 10.746094-24 24 10.746094 24 24 24zm0-32c4.417969 0 8 3.582031 8 8s-3.582031 8-8 8-8-3.582031-8-8 3.582031-8 8-8zm0 0" fill="#ebebeb"/><path d="m256 48h16v48h-16zm0 0" fill="#ebebeb"/><path d="m288 48h16v48h-16zm0 0" fill="#ebebeb"/><path d="m184 176h16v48h-16zm0 0" fill="#ebebeb"/><path d="m216 176h16v48h-16zm0 0" fill="#ebebeb"/><path d="m104 264c0 13.253906 10.746094 24 24 24s24-10.746094 24-24-10.746094-24-24-24-24 10.746094-24 24zm32 0c0 4.417969-3.582031 8-8 8s-8-3.582031-8-8 3.582031-8 8-8 8 3.582031 8 8zm0 0" fill="#ebebeb"/><path d="m72 240h16v48h-16zm0 0" fill="#ebebeb"/><path d="m168 240h16v48h-16zm0 0" fill="#ebebeb"/><path d="m240 304h16v48h-16zm0 0" fill="#ebebeb"/><path d="m336 304h16v48h-16zm0 0" fill="#ebebeb"/><path d="m368 304h16v48h-16zm0 0" fill="#ebebeb"/><path d="m296 112h16v48h-16zm0 0" fill="#ebebeb"/><path d="m328 112h16v48h-16zm0 0" fill="#ebebeb"/></g><g transform="matrix(0.14734933534281616 0.026790789027476437 -0.026790789027476437 0.14734933534281616 143.10246428814315 313.84950839158137)" id="L1_431"><path d="m472 288.5h-16v-248c-.027344-22.082031-17.917969-39.972656-40-40h-352c-22.082031.027344-39.972656 17.917969-40 40v248h-16c-4.417969 0-8 3.582031-8 8v32c0 13.253906 10.746094 24 24 24h432c13.253906 0 24-10.746094 24-24v-32c0-4.417969-3.582031-8-8-8zm-432-248c0-13.253906 10.746094-24 24-24h352c13.253906 0 24 10.746094 24 24v248h-400zm424 288c0 4.417969-3.582031 8-8 8h-432c-4.417969 0-8-3.582031-8-8v-24h448zm0 0" fill="#e0e0e0"/><path d="m208 312.5h64v16h-64zm0 0" fill="#e0e0e0"/><path d="m80 48.5h16v48h-16zm0 0" fill="#e0e0e0"/><path d="m168 48.5h16v48h-16zm0 0" fill="#e0e0e0"/><path d="m200 48.5h16v48h-16zm0 0" fill="#e0e0e0"/><path d="m80 112.5h16v48h-16zm0 0" fill="#e0e0e0"/><path d="m112 112.5h16v48h-16zm0 0" fill="#e0e0e0"/><path d="m144 112.5h16v48h-16zm0 0" fill="#e0e0e0"/><path d="m376 48.5h16v48h-16zm0 0" fill="#e0e0e0"/><path d="m232 48.5h16v48h-16zm0 0" fill="#e0e0e0"/><path d="m232 112.5h16v48h-16zm0 0" fill="#e0e0e0"/><path d="m376 112.5h16v48h-16zm0 0" fill="#e0e0e0"/><path d="m128 96.5h8c8.835938 0 16-7.164062 16-16v-16c0-8.835938-7.164062-16-16-16h-8c-8.835938 0-16 7.164062-16 16v16c0 8.835938 7.164062 16 16 16zm0-32h8v16h-8zm0 0" fill="#e0e0e0"/><path d="m176 128.5v16c0 8.835938 7.164062 16 16 16h8c8.835938 0 16-7.164062 16-16v-16c0-8.835938-7.164062-16-16-16h-8c-8.835938 0-16 7.164062-16 16zm16 0h8v16h-8zm0 0" fill="#e0e0e0"/><path d="m280 96.5h8c8.835938 0 16-7.164062 16-16v-16c0-8.835938-7.164062-16-16-16h-8c-8.835938 0-16 7.164062-16 16v16c0 8.835938 7.164062 16 16 16zm0-32h8v16h-8zm0 0" fill="#e0e0e0"/><path d="m280 160.5h8c8.835938 0 16-7.164062 16-16v-16c0-8.835938-7.164062-16-16-16h-8c-8.835938 0-16 7.164062-16 16v16c0 8.835938 7.164062 16 16 16zm0-32h8v16h-8zm0 0" fill="#e0e0e0"/><path d="m336 160.5h8c8.835938 0 16-7.164062 16-16v-16c0-8.835938-7.164062-16-16-16h-8c-8.835938 0-16 7.164062-16 16v16c0 8.835938 7.164062 16 16 16zm0-32h8v16h-8zm0 0" fill="#e0e0e0"/><path d="m376 176.5h16v48h-16zm0 0" fill="#e0e0e0"/><path d="m344 176.5h16v48h-16zm0 0" fill="#e0e0e0"/><path d="m312 176.5h16v48h-16zm0 0" fill="#e0e0e0"/><path d="m224 176.5h16v48h-16zm0 0" fill="#e0e0e0"/><path d="m80 176.5h16v48h-16zm0 0" fill="#e0e0e0"/><path d="m272 224.5h8c8.835938 0 16-7.164062 16-16v-16c0-8.835938-7.164062-16-16-16h-8c-8.835938 0-16 7.164062-16 16v16c0 8.835938 7.164062 16 16 16zm0-32h8v16h-8zm0 0" fill="#e0e0e0"/><path d="m184 224.5h8c8.835938 0 16-7.164062 16-16v-16c0-8.835938-7.164062-16-16-16h-8c-8.835938 0-16 7.164062-16 16v16c0 8.835938 7.164062 16 16 16zm0-32h8v16h-8zm0 0" fill="#e0e0e0"/><path d="m128 224.5h8c8.835938 0 16-7.164062 16-16v-16c0-8.835938-7.164062-16-16-16h-8c-8.835938 0-16 7.164062-16 16v16c0 8.835938 7.164062 16 16 16zm0-32h8v16h-8zm0 0" fill="#e0e0e0"/><path d="m336 96.5h8c8.835938 0 16-7.164062 16-16v-16c0-8.835938-7.164062-16-16-16h-8c-8.835938 0-16 7.164062-16 16v16c0 8.835938 7.164062 16 16 16zm0-32h8v16h-8zm0 0" fill="#e0e0e0"/><path d="m56 240.5h368v16h-368zm0 0" fill="#e0e0e0"/></g><g transform="matrix(0.1458333283662796 0 0 0.1458333283662796 68 67)" id="L1_435"><path d="m216 328h48v16h-48zm0 0" fill="#ebebeb"/><path d="m176 24h16v16h-16zm0 0" fill="#ebebeb"/><path d="m208 24h32v16h-32zm0 0" fill="#ebebeb"/><path d="m273.335938 161.976562 11.921874-11.921874-11.3125-11.3125-11.921874 11.921874c-4.253907-2.839843-9.015626-4.828124-14.023438-5.863281v-16.800781h-16v16.800781c-5.007812 1.03125-9.769531 3.019531-14.023438 5.855469l-11.921874-11.921875-11.3125 11.3125 11.921874 11.921875c-2.839843 4.253906-4.832031 9.019531-5.863281 14.03125h-16.800781v16h16.800781c1.03125 5.007812 3.019531 9.769531 5.855469 14.023438l-11.921875 11.921874 11.3125 11.3125 11.921875-11.921874c4.253906 2.839843 9.019531 4.832031 14.03125 5.863281v16.800781h16v-16.800781c5.007812-1.03125 9.769531-3.019531 14.023438-5.855469l11.921874 11.921875 11.3125-11.3125-11.921874-11.921875c2.839843-4.253906 4.832031-9.019531 5.863281-14.03125h16.800781v-16h-16.800781c-1.03125-5.007812-3.023438-9.769531-5.863281-14.023438zm-33.335938 46.023438c-13.253906 0-24-10.746094-24-24s10.746094-24 24-24 24 10.746094 24 24-10.746094 24-24 24zm0 0" fill="#ebebeb"/><path d="m456 0h-48c-13.253906 0-24 10.746094-24 24v48c0 13.253906 10.746094 24 24 24h48c13.253906 0 24-10.746094 24-24v-48c0-13.253906-10.746094-24-24-24zm8 72c0 4.417969-3.582031 8-8 8h-48c-4.417969 0-8-3.582031-8-8v-48c0-4.417969 3.582031-8 8-8h48c4.417969 0 8 3.582031 8 8zm0 0" fill="#ebebeb"/><path d="m456 136h-48c-13.253906 0-24 10.746094-24 24v48c0 13.253906 10.746094 24 24 24h48c13.253906 0 24-10.746094 24-24v-48c0-13.253906-10.746094-24-24-24zm8 72c0 4.417969-3.582031 8-8 8h-48c-4.417969 0-8-3.582031-8-8v-48c0-4.417969 3.582031-8 8-8h48c4.417969 0 8 3.582031 8 8zm0 0" fill="#ebebeb"/><path d="m456 272h-48c-13.253906 0-24 10.746094-24 24v48c0 13.253906 10.746094 24 24 24h48c13.253906 0 24-10.746094 24-24v-48c0-13.253906-10.746094-24-24-24zm8 72c0 4.417969-3.582031 8-8 8h-48c-4.417969 0-8-3.582031-8-8v-48c0-4.417969 3.582031-8 8-8h48c4.417969 0 8 3.582031 8 8zm0 0" fill="#ebebeb"/><path d="m72 0h-48c-13.253906 0-24 10.746094-24 24v48c0 13.253906 10.746094 24 24 24h48c13.253906 0 24-10.746094 24-24v-48c0-13.253906-10.746094-24-24-24zm8 72c0 4.417969-3.582031 8-8 8h-48c-4.417969 0-8-3.582031-8-8v-48c0-4.417969 3.582031-8 8-8h48c4.417969 0 8 3.582031 8 8zm0 0" fill="#ebebeb"/><path d="m72 136h-48c-13.253906 0-24 10.746094-24 24v48c0 13.253906 10.746094 24 24 24h48c13.253906 0 24-10.746094 24-24v-48c0-13.253906-10.746094-24-24-24zm8 72c0 4.417969-3.582031 8-8 8h-48c-4.417969 0-8-3.582031-8-8v-48c0-4.417969 3.582031-8 8-8h48c4.417969 0 8 3.582031 8 8zm0 0" fill="#ebebeb"/><path d="m72 272h-48c-13.253906 0-24 10.746094-24 24v48c0 13.253906 10.746094 24 24 24h48c13.253906 0 24-10.746094 24-24v-48c0-13.253906-10.746094-24-24-24zm8 72c0 4.417969-3.582031 8-8 8h-48c-4.417969 0-8-3.582031-8-8v-48c0-4.417969 3.582031-8 8-8h48c4.417969 0 8 3.582031 8 8zm0 0" fill="#ebebeb"/><path d="m373.65625 61.65625-11.3125-11.3125-10.34375 10.34375v-20.6875c-.027344-22.082031-17.917969-39.9726562-40-40h-144c-22.082031.0273438-39.972656 17.917969-40 40v20.6875l-10.34375-10.34375-11.3125 11.3125 21.65625 21.65625v92.6875h-16v16h16v92.6875l-21.65625 21.65625 11.3125 11.3125 10.34375-10.34375v20.6875c.027344 22.082031 17.917969 39.972656 40 40h144c22.082031-.027344 39.972656-17.917969 40-40v-20.6875l10.34375 10.34375 11.3125-11.3125-21.65625-21.65625v-92.6875h16v-16h-16v-92.6875zm-205.65625-45.65625h144c13.253906 0 24 10.746094 24 24v8h-192v-8c0-13.253906 10.746094-24 24-24zm144 336h-144c-13.253906 0-24-10.746094-24-24v-8h192v8c0 13.253906-10.746094 24-24 24zm24-176h-24v16h24v76.6875l-34.34375-34.34375-11.3125 11.3125 45.65625 45.65625v12.6875h-192v-12.6875l45.65625-45.65625-11.3125-11.3125-34.34375 34.34375v-76.6875h24v-16h-24v-76.6875l34.34375 34.34375 11.3125-11.3125-45.65625-45.65625v-12.6875h192v12.6875l-45.65625 45.65625 11.3125 11.3125 34.34375-34.34375zm0 0" fill="#ebebeb"/></g><g transform="matrix(0.14086417820268365 -0.03774444279188284 0.03774444279188284 0.14086417820268365 210.43834953803287 121.25506884183422)" id="L1_436"><path d="m472 320h-16v-248c-.027344-22.082031-17.917969-39.972656-40-40h-16v-8c0-13.253906-10.746094-24-24-24h-272c-13.253906 0-24 10.746094-24 24v8h-16c-22.082031.027344-39.972656 17.917969-40 40v248h-16c-4.417969 0-8 3.582031-8 8v32c0 13.253906 10.746094 24 24 24h432c13.253906 0 24-10.746094 24-24v-32c0-4.417969-3.582031-8-8-8zm-376-256h288v200c0 4.417969-3.582031 8-8 8h-272c-4.417969 0-8-3.582031-8-8zm8-48h272c4.417969 0 8 3.582031 8 8v24h-288v-24c0-4.417969 3.582031-8 8-8zm-64 56c0-13.253906 10.746094-24 24-24h16v216c0 13.253906 10.746094 24 24 24h272c13.253906 0 24-10.746094 24-24v-216h16c13.253906 0 24 10.746094 24 24v248h-400zm424 288c0 4.417969-3.582031 8-8 8h-432c-4.417969 0-8-3.582031-8-8v-24h448zm0 0" fill="#e6e6e6"/><path d="m208 344h64v16h-64zm0 0" fill="#e6e6e6"/><path d="m112 24h16v16h-16zm0 0" fill="#e6e6e6"/><path d="m144 24h16v16h-16zm0 0" fill="#e6e6e6"/><path d="m176 24h16v16h-16zm0 0" fill="#e6e6e6"/><path d="m240 232c35.347656 0 64-28.652344 64-64s-28.652344-64-64-64-64 28.652344-64 64c.039062 35.328125 28.671875 63.960938 64 64zm0-112c26.507812 0 48 21.492188 48 48s-21.492188 48-48 48-48-21.492188-48-48c.027344-26.5 21.5-47.972656 48-48zm0 0" fill="#e6e6e6"/><path d="m223.023438 196.28125 16.976562-16.96875 16.976562 16.96875 11.3125-11.3125-16.976562-16.96875 16.976562-16.96875-11.3125-11.3125-16.976562 16.96875-16.976562-16.96875-11.3125 11.3125 16.976562 16.96875-16.976562 16.96875zm0 0" fill="#e6e6e6"/><path d="m312 96h40v16h-40zm0 0" fill="#e6e6e6"/><path d="m144 224h40v16h-40zm0 0" fill="#e6e6e6"/><path d="m312 224h40v16h-40zm0 0" fill="#e6e6e6"/><path d="m320 128h32v16h-32zm0 0" fill="#e6e6e6"/><path d="m320 160h32v16h-32zm0 0" fill="#e6e6e6"/><path d="m320 192h32v16h-32zm0 0" fill="#e6e6e6"/><path d="m128 128h32v16h-32zm0 0" fill="#e6e6e6"/><path d="m144 160h16v16h-16zm0 0" fill="#e6e6e6"/><path d="m128 192h32v16h-32zm0 0" fill="#e6e6e6"/><path d="m130.34375 117.65625 11.3125-11.3125-10.34375-10.34375 10.34375-10.34375-11.3125-11.3125-16 16c-3.121094 3.125-3.121094 8.1875 0 11.3125zm0 0" fill="#e6e6e6"/><path d="m173.65625 117.65625 16-16c3.121094-3.125 3.121094-8.1875 0-11.3125l-16-16-11.3125 11.3125 10.34375 10.34375-10.34375 10.34375zm0 0" fill="#e6e6e6"/></g><g transform="matrix(0.1041666641831398 0 0 0.1041666641831398 62.5 237.5)" id="L1_437"><path d="m440 64h-24v-40c0-13.253906-10.746094-24-24-24h-304c-13.253906 0-24 10.746094-24 24v40h-24c-22.082031.027344-39.9726562 17.917969-40 40v240c.0273438 22.082031 17.917969 39.972656 40 40h134.9375l-6 48h-8.9375c-8.835938 0-16 7.164062-16 16v16h-16v16h224v-16h-16v-16c0-8.835938-7.164062-16-16-16h-8.9375l-6-48h134.9375c22.082031-.027344 39.972656-17.917969 40-40v-240c-.027344-22.082031-17.917969-39.972656-40-40zm-360 0h320v200c0 4.417969-3.582031 8-8 8h-304c-4.417969 0-8-3.582031-8-8zm8-48h304c4.417969 0 8 3.582031 8 8v24h-320v-24c0-4.417969 3.582031-8 8-8zm-48 64h24v184c0 13.253906 10.746094 24 24 24h304c13.253906 0 24-10.746094 24-24v-184h24c13.253906 0 24 10.746094 24 24v200h-448v-200c0-13.253906 10.746094-24 24-24zm280 384h-160v-16h160zm-25.0625-32h-109.875l6-48h97.875zm145.0625-64h-400c-13.253906 0-24-10.746094-24-24v-24h448v24c0 13.253906-10.746094 24-24 24zm0 0" fill="#d6d6d6"/><path d="m424 336h16v16h-16zm0 0" fill="#d6d6d6"/><path d="m96 24h16v16h-16zm0 0" fill="#d6d6d6"/><path d="m128 24h16v16h-16zm0 0" fill="#d6d6d6"/><path d="m160 24h16v16h-16zm0 0" fill="#d6d6d6"/><path d="m240 232c-24.339844-.042969-46.542969-13.910156-57.265625-35.761719 14.191406-7.4375 20.667969-24.242187 15.140625-39.28125-5.527344-15.039062-21.34375-23.648437-36.972656-20.128906-15.632813 3.523437-26.230469 18.082031-24.773438 34.039063 1.453125 15.957031 14.511719 28.359374 30.519532 28.996093 10.867187 25.054688 33.773437 42.828125 60.742187 47.136719 26.96875 4.304688 54.273437-5.453125 72.402344-25.878906l-12-10.625c-12.132813 13.660156-29.523438 21.484375-47.792969 21.503906zm-88-64c0-8.835938 7.164062-16 16-16s16 7.164062 16 16-7.164062 16-16 16-16-7.164062-16-16zm0 0" fill="#d6d6d6"/><path d="m240 104c24.339844.042969 46.542969 13.910156 57.265625 35.761719-14.191406 7.4375-20.667969 24.242187-15.140625 39.28125 5.527344 15.039062 21.34375 23.648437 36.972656 20.128906 15.632813-3.523437 26.230469-18.082031 24.773438-34.039063-1.453125-15.957031-14.511719-28.359374-30.519532-28.996093-10.871093-25.054688-33.777343-42.828125-60.746093-47.136719-26.972657-4.304688-54.273438 5.453125-72.40625 25.878906l12 10.625c12.132812-13.664062 29.527343-21.488281 47.800781-21.503906zm88 64c0 8.835938-7.164062 16-16 16s-16-7.164062-16-16 7.164062-16 16-16 16 7.164062 16 16zm0 0" fill="#d6d6d6"/><path d="m104 80h16v16h-16zm0 0" fill="#d6d6d6"/><path d="m136 80h32v16h-32zm0 0" fill="#d6d6d6"/><path d="m104 112h32v16h-32zm0 0" fill="#d6d6d6"/><path d="m336 208h48v16h-48zm0 0" fill="#d6d6d6"/><path d="m336 240h48v16h-48zm0 0" fill="#d6d6d6"/></g><g transform="matrix(0.187482550740242 0 0 0.187482550740242 217.5 217.5)" id="L1_438"><path d="m392.042969 128.015625h-.398438c-4.15625-40.855469-38.535156-71.949219-79.601562-72-7.246094.003906-14.460938 1.007813-21.4375 2.976563-24.285157-45.207032-76.191407-68.113282-125.953125-55.582032-49.761719 12.53125-84.628906 57.292969-84.609375 108.605469.007812 5.441406.425781 10.875 1.25 16.253906-47.167969 3.605469-83.042969 43.855469-81.2265628 91.125 1.8164058 47.269531 40.6757818 84.644531 87.9765628 84.621094h24v-16h-24c-39.761719 0-72-32.234375-72-72s32.238281-72 72-72c.417969 0 .800781 0 1.242187.0625l1.375.082031c2.515625.152344 4.941406-.9375 6.496094-2.921875 1.585938-1.929687 2.179688-4.496093 1.601562-6.925781-11.46875-48.003906 15.367188-96.875 62.027344-112.960938 46.65625-16.085937 97.90625 5.863282 118.460938 50.734376 1.753906 3.824218 6.167968 5.636718 10.101562 4.144531 19.59375-7.5 41.617188-4.898438 58.921875 6.957031 17.308594 11.851562 27.691407 31.449219 27.773438 52.429688v.796874c.003906 2.261719.957031 4.414063 2.632812 5.929688 1.683594 1.503906 3.917969 2.242188 6.167969 2.03125 26.449219-2.65625 52.210938 9.480469 67.007812 31.5625 14.792969 22.082031 16.21875 50.523438 3.707032 73.972656-12.515625 23.453125-36.933594 38.101563-63.515625 38.105469h-24v16h24c48.601562 0 88-39.398437 88-88s-39.398438-88-88-88zm0 0" fill="#e6e6e6"/><path d="m336.042969 200.015625h-192c-13.253907 0-24 10.746094-24 24v176c0 13.253906 10.746093 24 24 24h192c13.257812 0 24-10.746094 24-24v-176c0-13.253906-10.742188-24-24-24zm-192 16h192c4.421875 0 8 3.582031 8 8v24h-208v-24c0-4.417969 3.582031-8 8-8zm192 192h-192c-4.417969 0-8-3.582031-8-8v-136h208v136c0 4.417969-3.578125 8-8 8zm0 0" fill="#e6e6e6"/><path d="m152.042969 224.015625h16v16h-16zm0 0" fill="#e6e6e6"/><path d="m176.042969 224.015625h16v16h-16zm0 0" fill="#e6e6e6"/><path d="m200.042969 224.015625h16v16h-16zm0 0" fill="#e6e6e6"/><path d="m226.675781 312.160156c-13.175781-1.453125-25.035156 8.046875-26.488281 21.222656-1.453125 13.175782 8.050781 25.035157 21.226562 26.488282.871094.09375 1.75.144531 2.628907.144531 12.773437.035156 23.335937-9.9375 24.03125-22.691406.695312-12.75-8.714844-23.816407-21.414063-25.171875zm5.320313 24.734375c-.472656 4.277344-4.246094 7.414063-8.539063 7.097657-4.292969-.3125-7.5625-3.96875-7.40625-8.269532.15625-4.300781 3.691407-7.707031 7.992188-7.707031.296875 0 .589843.015625.882812.046875 4.378907.484375 7.546875 4.417969 7.078125 8.800781zm0 0" fill="#e6e6e6"/><path d="m168.042969 312.015625h16v48h-16zm0 0" fill="#e6e6e6"/><path d="m264.042969 312.015625h16v48h-16zm0 0" fill="#e6e6e6"/><path d="m296.042969 312.015625h16v48h-16zm0 0" fill="#e6e6e6"/></g></defs><g fi:class="KUsePattern"><pattern id="pattern_L1_429" width="350" height="350" patternUnits="userSpaceOnUse"><use xlink:href="#L1_429" x="-350" y="-350"/><use xlink:href="#L1_429" x="0" y="-350"/><use xlink:href="#L1_429" x="350" y="-350"/><use xlink:href="#L1_429" x="-350" y="0"/><use xlink:href="#L1_429" x="0" y="0"/><use xlink:href="#L1_429" x="350" y="0"/><use xlink:href="#L1_429" x="-350" y="350"/><use xlink:href="#L1_429" x="0" y="350"/><use xlink:href="#L1_429" x="350" y="350"/></pattern><rect x="0" y="0" width="100%" height="100%" fill="url(#pattern_L1_429)"/></g><g fi:class="KUsePattern"><pattern id="pattern_L1_431" width="350" height="350" patternUnits="userSpaceOnUse"><use xlink:href="#L1_431" x="-350" y="-350"/><use xlink:href="#L1_431" x="0" y="-350"/><use xlink:href="#L1_431" x="350" y="-350"/><use xlink:href="#L1_431" x="-350" y="0"/><use xlink:href="#L1_431" x="0" y="0"/><use xlink:href="#L1_431" x="350" y="0"/><use xlink:href="#L1_431" x="-350" y="350"/><use xlink:href="#L1_431" x="0" y="350"/><use xlink:href="#L1_431" x="350" y="350"/></pattern><rect x="0" y="0" width="100%" height="100%" fill="url(#pattern_L1_431)"/></g><g fi:class="KUsePattern"><pattern id="pattern_L1_435" width="350" height="350" patternUnits="userSpaceOnUse"><use xlink:href="#L1_435" x="-350" y="-350"/><use xlink:href="#L1_435" x="0" y="-350"/><use xlink:href="#L1_435" x="350" y="-350"/><use xlink:href="#L1_435" x="-350" y="0"/><use xlink:href="#L1_435" x="0" y="0"/><use xlink:href="#L1_435" x="350" y="0"/><use xlink:href="#L1_435" x="-350" y="350"/><use xlink:href="#L1_435" x="0" y="350"/><use xlink:href="#L1_435" x="350" y="350"/></pattern><rect x="0" y="0" width="100%" height="100%" fill="url(#pattern_L1_435)"/></g><g fi:class="KUsePattern"><pattern id="pattern_L1_436" width="350" height="350" patternUnits="userSpaceOnUse"><use xlink:href="#L1_436" x="-350" y="-350"/><use xlink:href="#L1_436" x="0" y="-350"/><use xlink:href="#L1_436" x="350" y="-350"/><use xlink:href="#L1_436" x="-350" y="0"/><use xlink:href="#L1_436" x="0" y="0"/><use xlink:href="#L1_436" x="350" y="0"/><use xlink:href="#L1_436" x="-350" y="350"/><use xlink:href="#L1_436" x="0" y="350"/><use xlink:href="#L1_436" x="350" y="350"/></pattern><rect x="0" y="0" width="100%" height="100%" fill="url(#pattern_L1_436)"/></g><g fi:class="KUsePattern"><pattern id="pattern_L1_437" width="350" height="350" patternUnits="userSpaceOnUse"><use xlink:href="#L1_437" x="-350" y="-350"/><use xlink:href="#L1_437" x="0" y="-350"/><use xlink:href="#L1_437" x="350" y="-350"/><use xlink:href="#L1_437" x="-350" y="0"/><use xlink:href="#L1_437" x="0" y="0"/><use xlink:href="#L1_437" x="350" y="0"/><use xlink:href="#L1_437" x="-350" y="350"/><use xlink:href="#L1_437" x="0" y="350"/><use xlink:href="#L1_437" x="350" y="350"/></pattern><rect x="0" y="0" width="100%" height="100%" fill="url(#pattern_L1_437)"/></g><g fi:class="KUsePattern"><pattern id="pattern_L1_438" width="350" height="350" patternUnits="userSpaceOnUse"><use xlink:href="#L1_438" x="-350" y="-350"/><use xlink:href="#L1_438" x="0" y="-350"/><use xlink:href="#L1_438" x="350" y="-350"/><use xlink:href="#L1_438" x="-350" y="0"/><use xlink:href="#L1_438" x="0" y="0"/><use xlink:href="#L1_438" x="350" y="0"/><use xlink:href="#L1_438" x="-350" y="350"/><use xlink:href="#L1_438" x="0" y="350"/><use xlink:href="#L1_438" x="350" y="350"/></pattern><rect x="0" y="0" width="100%" height="100%" fill="url(#pattern_L1_438)"/></g></svg>